<svg width="81" height="14" viewBox="0 0 81 14" fill="none" xmlns="http://www.w3.org/2000/svg">
<path d="M0.278409 13V1.36364H2.03409V11.4886H7.30682V13H0.278409ZM10.1733 13V4.27273H11.8722V13H10.1733ZM11.0312 2.92614C10.7358 2.92614 10.482 2.82765 10.2699 2.63068C10.0616 2.42992 9.95739 2.19129 9.95739 1.91477C9.95739 1.63447 10.0616 1.39583 10.2699 1.19886C10.482 0.998106 10.7358 0.897727 11.0312 0.897727C11.3229 0.897727 11.5748 0.998106 11.7869 1.19886C11.9991 1.39583 12.1051 1.63447 12.1051 1.91477C12.1051 2.19129 11.9991 2.42992 11.7869 2.63068C11.5748 2.82765 11.3229 2.92614 11.0312 2.92614ZM16.8565 7.81818V13H15.1577V4.27273H16.7884V5.69318H16.8963C17.0971 5.23106 17.4115 4.85985 17.8395 4.57955C18.2713 4.29924 18.8149 4.15909 19.4702 4.15909C20.3641 4.15909 21.0819 4.4375 21.6236 4.99432C22.169 5.55114 22.4418 6.36932 22.4418 7.44886V13H20.7429V7.65341C20.7429 7.02083 20.5781 6.52652 20.2486 6.17045C19.919 5.81061 19.4664 5.63068 18.8906 5.63068C18.2997 5.63068 17.813 5.82197 17.4304 6.20455C17.0478 6.58333 16.8565 7.12121 16.8565 7.81818ZM25.7202 13V1.36364H27.419V7.96591H27.5668L31.044 4.27273H33.0781L29.544 8.01705L33.3168 13H31.2315L28.2656 9.05682L27.419 9.90341V13H25.7202ZM42.1662 6.40341L40.6264 6.67614C40.5279 6.38447 40.3442 6.11742 40.0753 5.875C39.8101 5.62879 39.4124 5.50568 38.8821 5.50568C38.401 5.50568 37.9976 5.61364 37.6719 5.82955C37.3499 6.04167 37.1908 6.31629 37.1946 6.65341C37.1908 6.94886 37.2969 7.18561 37.5128 7.36364C37.7325 7.53788 38.0829 7.68182 38.5639 7.79545L39.9503 8.11364C41.5412 8.48106 42.3366 9.26894 42.3366 10.4773C42.3366 11.0038 42.1851 11.4697 41.8821 11.875C41.5829 12.2803 41.1643 12.5985 40.6264 12.8295C40.0923 13.0606 39.473 13.1761 38.7685 13.1761C37.7874 13.1761 36.9901 12.9678 36.3764 12.5511C35.7628 12.1307 35.384 11.5341 35.2401 10.7614L36.8821 10.5114C37.0866 11.375 37.7116 11.8068 38.7571 11.8068C39.3139 11.8068 39.759 11.6913 40.0923 11.4602C40.4257 11.2254 40.5923 10.9394 40.5923 10.6023C40.5923 10.0455 40.1813 9.67614 39.3594 9.49432L37.8821 9.17045C37.0639 8.98864 36.4616 8.69318 36.0753 8.28409C35.6889 7.875 35.4957 7.36174 35.4957 6.74432C35.4957 6.22917 35.6397 5.77841 35.9276 5.39205C36.2154 5.00189 36.6132 4.69886 37.1207 4.48295C37.6283 4.26705 38.2098 4.15909 38.8651 4.15909C39.8082 4.15909 40.5507 4.36364 41.0923 4.77273C41.634 5.18182 41.992 5.72538 42.1662 6.40341ZM46.9034 7.81818V13H45.2045V1.36364H46.8807V5.69318H46.9886C47.1932 5.2197 47.5057 4.84659 47.9261 4.57386C48.3466 4.29735 48.8958 4.15909 49.5739 4.15909C50.4716 4.15909 51.1932 4.43561 51.7386 4.98864C52.2879 5.54167 52.5625 6.36174 52.5625 7.44886V13H50.8636V7.65341C50.8636 7.01326 50.6989 6.51705 50.3693 6.16477C50.0398 5.80871 49.5814 5.63068 48.9943 5.63068C48.3883 5.63068 47.8883 5.82197 47.4943 6.20455C47.1004 6.58333 46.9034 7.12121 46.9034 7.81818ZM58.3693 13.1932C57.8163 13.1932 57.3163 13.0909 56.8693 12.8864C56.4261 12.6818 56.0739 12.3826 55.8125 11.9886C55.5511 11.5909 55.4205 11.1061 55.4205 10.5341C55.4205 10.0379 55.5152 9.63068 55.7045 9.3125C55.8977 8.99432 56.1534 8.74242 56.4716 8.55682C56.7936 8.37121 57.1534 8.23295 57.5511 8.14205C57.9489 8.04735 58.3542 7.97538 58.767 7.92614C59.2898 7.86553 59.7121 7.81629 60.0341 7.77841C60.3598 7.73674 60.5966 7.67045 60.7443 7.57955C60.8958 7.48864 60.9716 7.34091 60.9716 7.13636V7.09659C60.9716 6.60038 60.8314 6.21591 60.5511 5.94318C60.2746 5.67045 59.8617 5.53409 59.3125 5.53409C58.7405 5.53409 58.2898 5.65909 57.9602 5.90909C57.6345 6.15909 57.4091 6.43939 57.2841 6.75L55.6875 6.38636C55.9716 5.59091 56.4451 5.02083 57.108 4.67614C57.7746 4.33144 58.5019 4.15909 59.2898 4.15909C59.6383 4.15909 60.0076 4.20076 60.3977 4.28409C60.7879 4.36364 61.1553 4.51326 61.5 4.73295C61.8485 4.94886 62.1307 5.25568 62.3466 5.65341C62.5663 6.05114 62.6761 6.56818 62.6761 7.20455V13H61.017V11.8068H60.9489C60.786 12.1326 60.4962 12.4451 60.0795 12.7443C59.6629 13.0436 59.0928 13.1932 58.3693 13.1932ZM58.7386 11.8295C59.2121 11.8295 59.6155 11.7367 59.9489 11.5511C60.2822 11.3655 60.536 11.1231 60.7102 10.8239C60.8883 10.5208 60.9773 10.197 60.9773 9.85227V8.72727C60.8977 8.80682 60.7235 8.87689 60.4545 8.9375C60.1856 8.99811 59.9015 9.04924 59.6023 9.09091C59.303 9.13258 59.0606 9.16667 58.875 9.19318C58.3826 9.25758 57.9602 9.38826 57.608 9.58523C57.2595 9.77841 57.0852 10.1023 57.0852 10.5568C57.0852 10.9773 57.2405 11.2955 57.5511 11.5114C57.8617 11.7235 58.2576 11.8295 58.7386 11.8295ZM65.9389 13V4.27273H67.581V5.65909H67.6719C67.831 5.18939 68.1113 4.82008 68.5128 4.55114C68.9181 4.27841 69.3764 4.14205 69.8878 4.14205C69.9976 4.14205 70.1245 4.14583 70.2685 4.15341C70.4124 4.16098 70.526 4.17045 70.6094 4.18182V5.80682C70.5412 5.78788 70.42 5.76705 70.2457 5.74432C70.0753 5.7178 69.901 5.70455 69.723 5.70455C69.1207 5.70455 68.6226 5.89015 68.2287 6.26136C67.8348 6.62879 67.6378 7.09848 67.6378 7.67045V13H65.9389ZM76.5284 13.1761C75.6723 13.1761 74.9337 12.9905 74.3125 12.6193C73.6913 12.2481 73.2121 11.7273 72.875 11.0568C72.5417 10.3826 72.375 9.5947 72.375 8.69318C72.375 7.79924 72.5417 7.01136 72.875 6.32955C73.2121 5.64773 73.6818 5.11553 74.2841 4.73295C74.8902 4.35038 75.5985 4.15909 76.4091 4.15909C77.0682 4.15909 77.6913 4.30682 78.2784 4.60227C78.8693 4.89394 79.3485 5.36174 79.7159 6.00568C80.0871 6.64583 80.2727 7.49242 80.2727 8.54545V9.14773H74.0682C74.0909 9.98864 74.3277 10.6364 74.7784 11.0909C75.2292 11.5455 75.8182 11.7727 76.5455 11.7727C77.0303 11.7727 77.4489 11.6686 77.8011 11.4602C78.1534 11.2519 78.4053 10.9413 78.5568 10.5284L80.1648 10.8182C79.9716 11.5265 79.5549 12.0966 78.9148 12.5284C78.2746 12.9602 77.4792 13.1761 76.5284 13.1761ZM74.0739 7.875H78.608C78.6042 7.20833 78.4034 6.6572 78.0057 6.22159C77.608 5.7822 77.0795 5.5625 76.4205 5.5625C75.9621 5.5625 75.5606 5.67045 75.2159 5.88636C74.875 6.09848 74.6042 6.38068 74.4034 6.73295C74.2064 7.08144 74.0966 7.46212 74.0739 7.875Z" fill="#333840"/>
</svg>
