<svg width="23" height="26" viewBox="0 0 23 26" fill="none" xmlns="http://www.w3.org/2000/svg">
<path fill-rule="evenodd" clip-rule="evenodd" d="M5.7959 6.63636C5.7959 9.71158 8.28886 12.2045 11.3641 12.2045C14.4393 12.2045 16.9323 9.71158 16.9323 6.63636C16.9323 3.56114 14.4393 1.06818 11.3641 1.06818C8.28886 1.06818 5.7959 3.56114 5.7959 6.63636Z" stroke="currentColor" stroke-width="1.59091" stroke-linecap="round" stroke-linejoin="round"/>
<path d="M6.56543 3.80878C8.30731 5.6161 10.7096 6.63689 13.2197 6.63635C14.478 6.63685 15.7232 6.38024 16.8788 5.88226" stroke="currentColor" stroke-width="1.59091" stroke-linecap="round" stroke-linejoin="round"/>
<path d="M1.02246 24.9318C1.02246 19.2207 5.65224 14.5909 11.3634 14.5909C17.0745 14.5909 21.7043 19.2207 21.7043 24.9318" stroke="currentColor" stroke-width="1.59091" stroke-linecap="round" stroke-linejoin="round"/>
<path d="M7.38672 15.3853V16.1818C7.38672 18.3784 9.1674 20.1591 11.364 20.1591C13.5606 20.1591 15.3413 18.3784 15.3413 16.1818V15.3853" stroke="currentColor" stroke-width="1.59091" stroke-linecap="round" stroke-linejoin="round"/>
<path d="M5.00003 16.78V24.9318" stroke="currentColor" stroke-width="1.59091" stroke-linecap="round" stroke-linejoin="round"/>
<path d="M17.7276 16.78V24.9318" stroke="currentColor" stroke-width="1.59091" stroke-linecap="round" stroke-linejoin="round"/>
</svg>
