<svg width="24" height="24" viewBox="0 0 24 24" fill="none" xmlns="http://www.w3.org/2000/svg">
<path d="M13 17.5C13 17.7652 12.8946 18.0196 12.7071 18.2071C12.5196 18.3946 12.2652 18.5 12 18.5C11.7348 18.5 11.4804 18.3946 11.2929 18.2071C11.1054 18.0196 11 17.7652 11 17.5C11 17.2348 11.1054 16.9804 11.2929 16.7929C11.4804 16.6054 11.7348 16.5 12 16.5C12.2652 16.5 12.5196 16.6054 12.7071 16.7929C12.8946 16.9804 13 17.2348 13 17.5ZM12.75 9.25C12.75 9.05109 12.671 8.86032 12.5303 8.71967C12.3897 8.57902 12.1989 8.5 12 8.5C11.8011 8.5 11.6103 8.57902 11.4697 8.71967C11.329 8.86032 11.25 9.05109 11.25 9.25V13.75C11.25 13.9489 11.329 14.1397 11.4697 14.2803C11.6103 14.421 11.8011 14.5 12 14.5C12.1989 14.5 12.3897 14.421 12.5303 14.2803C12.671 14.1397 12.75 13.9489 12.75 13.75V9.25Z" fill="currentColor"/>
<path fill-rule="evenodd" clip-rule="evenodd" d="M9.83646 3.24399C10.7995 1.57899 13.2015 1.57899 14.1645 3.24399L23.1315 18.748C24.0945 20.415 22.8915 22.5 20.9665 22.5H3.03446C1.10846 22.5 -0.0935391 20.415 0.869461 18.748L9.83646 3.24399ZM12.8665 3.99499C12.7787 3.84298 12.6525 3.71676 12.5004 3.629C12.3484 3.54123 12.176 3.49503 12.0005 3.49503C11.8249 3.49503 11.6525 3.54123 11.5005 3.629C11.3485 3.71676 11.2222 3.84298 11.1345 3.99499L2.16846 19.499C2.08044 19.651 2.03404 19.8236 2.03391 19.9993C2.03378 20.1749 2.07994 20.3476 2.16773 20.4997C2.25553 20.6519 2.38186 20.7783 2.53402 20.8661C2.68617 20.9539 2.85878 21.0001 3.03446 21H20.9665C21.142 21 21.3144 20.9538 21.4665 20.866C21.6185 20.7782 21.7447 20.652 21.8325 20.5C21.9202 20.348 21.9664 20.1755 21.9664 20C21.9664 19.8244 21.9202 19.652 21.8325 19.5L12.8665 3.99399V3.99499Z" fill="currentColor"/>
</svg>
